<svg height="512" viewBox="0 0 64 64" width="512" xmlns="http://www.w3.org/2000/svg"><g id="performance"><path d="m57.75 53.31a6.022 6.022 0 0 1 -.34.83l2.01 2.58-2.7 2.7-2.58-2.01a6.022 6.022 0 0 1 -.83.34l-.41 3.25h-3.8l-.41-3.25a6.022 6.022 0 0 1 -.83-.34l-2.58 2.01-2.7-2.7 2.01-2.58a6.022 6.022 0 0 1 -.34-.83l-3.25-.41v-3.8l3.25-.41a6.022 6.022 0 0 1 .34-.83l-2.01-2.58 2.7-2.7 2.58 2.01a6.022 6.022 0 0 1 .83-.34l.41-3.25h3.8l.41 3.25a6.022 6.022 0 0 1 .83.34l2.58-2.01 2.7 2.7-2.01 2.58a6.022 6.022 0 0 1 .34.83l3.25.41v3.8z" fill="#c0ab91"/><path d="m57.75 53.31a6.022 6.022 0 0 1 -.34.83l2.01 2.58-2.7 2.7-2.58-2.01a6.022 6.022 0 0 1 -.83.34l-.41 3.25h-3.8l-.41-3.25a6.022 6.022 0 0 1 -.83-.34l-2.58 2.01-1.37-1.37a21.327 21.327 0 0 0 10.09-7.05 20.921 20.921 0 0 0 3.66-7.48l1.76 1.76-2.01 2.58a6.022 6.022 0 0 1 .34.83l3.25.41v3.8z" fill="#b39a7c"/><circle cx="32" cy="55" fill="#46f8ff" r="6"/><path d="m38 55a6 6 0 0 1 -11.12 3.12 5.91 5.91 0 0 0 3.12.88 6 6 0 0 0 6-6 5.91 5.91 0 0 0 -.88-3.12 5.977 5.977 0 0 1 2.88 5.12z" fill="#00e7f0"/><circle cx="51" cy="51" fill="#ffde55" r="4"/><path d="m17 55h3v6h-3z" fill="#ffde55"/><path d="m10 53h3v8h-3z" fill="#57a4ff"/><path d="m3 47h3v14h-3z" fill="#00e7f0"/><circle cx="32" cy="15" fill="#57a4ff" r="3"/><path d="m41 20a27.146 27.146 0 0 1 -2.15 11 15.083 15.083 0 0 1 -1.88 3.17c-.22-4.58-2.37-8.17-4.97-8.17s-4.75 3.59-4.97 8.17a15.083 15.083 0 0 1 -1.88-3.17 27.146 27.146 0 0 1 -2.15-11c0-9.39 9-17 9-17s9 7.61 9 17zm-6-5a3 3 0 1 0 -3 3 3 3 0 0 0 3-3z" fill="#ff3051"/><path d="m32 3a26.26 26.26 0 0 0 -2 1.95c2.64 2.84 7 8.52 7 15.05a29.033 29.033 0 0 1 -1.33 8.89 13.063 13.063 0 0 1 1.3 5.28 15.083 15.083 0 0 0 1.88-3.17 27.146 27.146 0 0 0 2.15-11c0-9.39-9-17-9-17z" fill="#cd2a00"/><path d="m47 23 2 15h-4l-3-7h-3.15a27.146 27.146 0 0 0 2.15-11z" fill="#ffde55"/><path d="m49 38h-4l-2-15-2.07-1.03c.05-.64.07-1.3.07-1.97l6 3z" fill="#ffcd00"/><path d="m36.97 34.17c.02.27.03.55.03.83 0 4.97-5 9-5 9s-5-4.03-5-9c0-.28.01-.56.03-.83.22-4.58 2.37-8.17 4.97-8.17s4.75 3.59 4.97 8.17z" fill="#ff7956"/><path d="m37 35c0 4.97-5 9-5 9a13.032 13.032 0 0 1 -1-.93c1.46-1.46 4-4.53 4-8.07 0-.28-.01-.56-.03-.83-.19-3.98-1.84-7.21-3.97-7.99a2.852 2.852 0 0 1 1-.18c2.6 0 4.75 3.59 4.97 8.17.02.27.03.55.03.83z" fill="#ff5023"/><path d="m25.15 31h-3.15l-3 7h-4l2-15 6-3a27.146 27.146 0 0 0 2.15 11z" fill="#ffde55"/><path d="m55 51a3.995 3.995 0 0 1 -7.64 1.64 3.931 3.931 0 0 0 1.64.36 4 4 0 0 0 4-4 3.931 3.931 0 0 0 -.36-1.64 3.988 3.988 0 0 1 2.36 3.64z" fill="#ffcd00"/><path d="m32 48a7 7 0 1 0 7 7 7.009 7.009 0 0 0 -7-7zm0 12a5 5 0 0 1 -1-9.9v4.9h2v-4.9a5 5 0 0 1 -1 9.9z"/><path d="m6 46h-3a1 1 0 0 0 -1 1v14a1 1 0 0 0 1 1h3a1 1 0 0 0 1-1v-14a1 1 0 0 0 -1-1zm-1 14h-1v-12h1z"/><path d="m13 52h-3a1 1 0 0 0 -1 1v8a1 1 0 0 0 1 1h3a1 1 0 0 0 1-1v-8a1 1 0 0 0 -1-1zm-1 8h-1v-6h1z"/><path d="m20 54h-3a1 1 0 0 0 -1 1v6a1 1 0 0 0 1 1h3a1 1 0 0 0 1-1v-6a1 1 0 0 0 -1-1zm-1 6h-1v-4h1z"/><path d="m57 14v-4h-2v3h-9v2h10a1 1 0 0 0 1-1z"/><path d="m50 6h12v2h-12z"/><path d="m50 2h2v2h-2z"/><path d="m54 2h8v2h-8z"/><path d="m54 30h8v2h-8z"/><path d="m54 22h8v2h-8z"/><path d="m54 26h2v2h-2z"/><path d="m58 26h4v2h-4z"/><path d="m54 18h2v2h-2z"/><path d="m58 18h4v2h-4z"/><path d="m2 37h8v2h-8z"/><path d="m2 29h8v2h-8z"/><path d="m2 33h2v2h-2z"/><path d="m6 33h4v2h-4z"/><path d="m2 25h2v2h-2z"/><path d="m6 25h4v2h-4z"/><path d="m9 8h9v-2h-10a1 1 0 0 0 -1 1v4h2z"/><path d="m2 13h12v2h-12z"/><path d="m12 17h2v2h-2z"/><path d="m2 17h8v2h-8z"/><path d="m47.99 22.87a.982.982 0 0 0 -.54-.76l-5.49-2.75c-.37-9.43-8.94-16.81-9.31-17.12a1 1 0 0 0 -1.3 0c-.37.31-8.94 7.69-9.31 17.12l-5.49 2.75a.982.982 0 0 0 -.54.76l-2 15a1 1 0 0 0 .24.79.981.981 0 0 0 .75.34h4a1 1 0 0 0 .92-.61l2.74-6.39h1.85a15.5 15.5 0 0 0 1.51 2.46c-.01.18-.02.36-.02.54 0 5.39 5.15 9.6 5.37 9.78a1.012 1.012 0 0 0 1.26 0c.22-.18 5.37-4.39 5.37-9.78 0-.18-.01-.36-.02-.54a15.5 15.5 0 0 0 1.51-2.46h1.85l2.74 6.39a1 1 0 0 0 .92.61h4a.981.981 0 0 0 .75-.34 1 1 0 0 0 .24-.79zm-25.99 7.13a1 1 0 0 0 -.92.61l-2.74 6.39h-2.2l1.78-13.34 4.13-2.07a28.815 28.815 0 0 0 1.62 8.41zm10 12.65c-1.27-1.21-4-4.23-4-7.65 0-4.71 2.11-8 4-8s4 3.29 4 8c0 3.42-2.73 6.44-4 7.65zm5.59-11.34c-.87-3.73-3.01-6.31-5.59-6.31s-4.72 2.58-5.59 6.31a25.428 25.428 0 0 1 -2.41-11.31c0-7.37 5.99-13.72 8-15.64 2.01 1.91 8 8.26 8 15.64a25.428 25.428 0 0 1 -2.41 11.31zm8.07 5.69-2.74-6.39a1 1 0 0 0 -.92-.61h-1.67a28.815 28.815 0 0 0 1.62-8.41l4.13 2.07 1.78 13.34z"/><path d="m32 19a4 4 0 1 0 -4-4 4 4 0 0 0 4 4zm0-6a2 2 0 1 1 -2 2 2 2 0 0 1 2-2z"/><path d="m31 29h2v2h-2z"/><path d="m31 33h2v7h-2z"/><path d="m61.12 48.1-2.4-.3 1.49-1.91a.994.994 0 0 0 -.09-1.32l-2.69-2.69a1 1 0 0 0 -1.32-.09l-1.91 1.49-.3-2.4a1.013 1.013 0 0 0 -1-.88h-3.8a1.013 1.013 0 0 0 -1 .88l-.3 2.4-1.91-1.49a1 1 0 0 0 -1.32.09l-2.69 2.69a.994.994 0 0 0 -.09 1.32l1.49 1.91-2.4.3a1.013 1.013 0 0 0 -.88 1v3.8a1.013 1.013 0 0 0 .88 1l2.4.3-1.49 1.91a.994.994 0 0 0 .09 1.32l2.69 2.69a1 1 0 0 0 1.32.09l1.91-1.49.3 2.4a1.013 1.013 0 0 0 1 .88h3.8a1.013 1.013 0 0 0 1-.88l.3-2.4 1.91 1.49a1 1 0 0 0 1.32-.09l2.69-2.69a.994.994 0 0 0 .09-1.32l-1.49-1.91 2.4-.3a1.013 1.013 0 0 0 .88-1v-3.8a1.013 1.013 0 0 0 -.88-1zm-1.12 3.92-2.37.3a.984.984 0 0 0 -.82.67c-.09.24-.19.48-.3.71a.979.979 0 0 0 .11 1.05l1.47 1.89-1.45 1.45-1.89-1.47a.979.979 0 0 0 -1.05-.11 7.758 7.758 0 0 1 -.72.3.989.989 0 0 0 -.66.82l-.3 2.37h-2.04l-.3-2.37a.989.989 0 0 0 -.66-.82 7.758 7.758 0 0 1 -.72-.3.979.979 0 0 0 -1.05.11l-1.89 1.47-1.45-1.45 1.47-1.89a.979.979 0 0 0 .11-1.05c-.11-.23-.21-.47-.3-.71a.984.984 0 0 0 -.82-.67l-2.37-.3v-2.04l2.37-.3a.984.984 0 0 0 .82-.67c.09-.24.19-.48.3-.71a.979.979 0 0 0 -.11-1.05l-1.47-1.89 1.45-1.45 1.89 1.47a.979.979 0 0 0 1.05.11c.23-.11.47-.21.71-.3a.984.984 0 0 0 .67-.82l.3-2.37h2.04l.3 2.37a.984.984 0 0 0 .67.82c.24.09.48.19.71.3a.979.979 0 0 0 1.05-.11l1.89-1.47 1.45 1.45-1.47 1.89a.979.979 0 0 0 -.11 1.05c.11.23.21.47.3.71a.984.984 0 0 0 .82.67l2.37.3z"/><path d="m51 46a5 5 0 1 0 5 5 5.006 5.006 0 0 0 -5-5zm0 8a3 3 0 1 1 3-3 3 3 0 0 1 -3 3z"/></g></svg>