<svg height="512" viewBox="0 0 74 74" width="512" xmlns="http://www.w3.org/2000/svg"><g id="color_line" data-name="color line"><path d="m9.7 39.94a26.916 26.916 0 0 0 2.16 10.53l-6.01 2.74a34.032 34.032 0 0 1 5.08-35.47l5.41 4.38a27.145 27.145 0 0 0 -6.64 17.82z" fill="#27ccbc"/><path d="m63.07 17.74-5.41 4.38a27.252 27.252 0 0 0 -41.32 0l-5.41-4.38a34.008 34.008 0 0 1 52.14 0z" fill="#fe7058"/><path d="m71 39.57a33.883 33.883 0 0 1 -2.85 13.64l-6.01-2.74a27.06 27.06 0 0 0 -4.48-28.35l5.41-4.38a33.876 33.876 0 0 1 7.93 21.83z" fill="#89c5cd"/><path d="m68.15 53.21a34.193 34.193 0 0 1 -13.19 15.22h-35.92a34.193 34.193 0 0 1 -13.19-15.22l6.01-2.74a26.916 26.916 0 0 1 -2.16-10.53 27.3 27.3 0 0 1 54.6 0 26.916 26.916 0 0 1 -2.16 10.53z" fill="#eeefee"/><path d="m68.15 53.21a34.193 34.193 0 0 1 -13.19 15.22h-35.92a34.193 34.193 0 0 1 -13.19-15.22l6.01-2.74a26.916 26.916 0 0 1 -2.16-10.53 27.3 27.3 0 0 1 54.6 0 26.916 26.916 0 0 1 -2.16 10.53z" fill="#e1e6e9"/><path d="m11.794 50.5-5.944 2.71a34.193 34.193 0 0 0 13.19 15.22h35.92a34.193 34.193 0 0 0 13.19-15.22l-5.944-2.71" fill="#e1e6e9"/><g fill="#323c6b"><path d="m54.96 68.93h-35.92a.5.5 0 0 1 -.265-.076 34.508 34.508 0 0 1 -13.383-15.443.5.5 0 0 1 .251-.656l5.944-2.71a.5.5 0 1 1 .414.91l-5.492 2.5a33.5 33.5 0 0 0 12.675 14.475h35.632a33.5 33.5 0 0 0 12.675-14.471l-5.491-2.504a.5.5 0 1 1 .414-.91l5.944 2.71a.5.5 0 0 1 .251.656 34.508 34.508 0 0 1 -13.384 15.443.5.5 0 0 1 -.265.076z"/><path d="m65.608 58.371a.5.5 0 0 1 -.421-.77 33.627 33.627 0 0 0 3.709-7.83.5.5 0 0 1 .951.308 34.608 34.608 0 0 1 -3.818 8.062.5.5 0 0 1 -.421.23z"/><path d="m37 8.463a.5.5 0 0 1 -.5-.5v-2.4a.5.5 0 0 1 1 0v2.4a.5.5 0 0 1 -.5.5z"/><path d="m21.232 12.822a.5.5 0 0 1 -.433-.25l-1.2-2.077a.5.5 0 1 1 .865-.5l1.2 2.077a.5.5 0 0 1 -.433.75z"/><path d="m9.756 24.48a.5.5 0 0 1 -.25-.067l-2.076-1.2a.5.5 0 0 1 .5-.866l2.076 1.2a.5.5 0 0 1 -.25.933z"/><path d="m5.646 40.314h-2.4a.5.5 0 0 1 0-1h2.4a.5.5 0 0 1 0 1z"/><path d="m7.929 57.281a.5.5 0 0 1 -.25-.933l2.076-1.2a.5.5 0 0 1 .5.866l-2.076 1.2a.5.5 0 0 1 -.25.067z"/><path d="m52.768 12.822a.5.5 0 0 1 -.433-.75l1.2-2.077a.5.5 0 1 1 .865.5l-1.2 2.077a.5.5 0 0 1 -.432.25z"/><path d="m64.244 24.48a.5.5 0 0 1 -.25-.933l2.076-1.2a.5.5 0 0 1 .5.866l-2.076 1.2a.5.5 0 0 1 -.25.067z"/><path d="m70.751 40.314h-2.4a.5.5 0 0 1 0-1h2.4a.5.5 0 0 1 0 1z"/><path d="m66.071 57.281a.5.5 0 0 1 -.25-.067l-2.076-1.2a.5.5 0 0 1 .5-.866l2.076 1.2a.5.5 0 0 1 -.25.933z"/><path d="m51.938 71.935h-11.313a.5.5 0 0 1 0-1h11.313a.5.5 0 0 1 0 1z"/><path d="m14.822 10.493a.5.5 0 0 1 -.3-.9c.256-.2.513-.391.775-.578a.5.5 0 1 1 .58.814c-.253.18-.5.367-.746.556a.5.5 0 0 1 -.309.108z"/><path d="m18.333 8.145a.5.5 0 0 1 -.253-.931 37.172 37.172 0 0 1 12.649-4.614.512.512 0 0 1 .576.41.5.5 0 0 1 -.41.577 36.167 36.167 0 0 0 -12.31 4.49.5.5 0 0 1 -.252.068z"/><path d="m37.948 71.935h-.511a.5.5 0 0 1 0-1h.511a.5.5 0 0 1 0 1z"/><path d="m68.15 53.71a.5.5 0 0 1 -.207-.045l-6.011-2.74a.5.5 0 0 1 -.253-.65 26.314 26.314 0 0 0 2.121-10.335 26.8 26.8 0 0 0 -53.6 0 26.314 26.314 0 0 0 2.12 10.334.5.5 0 0 1 -.253.65l-6.011 2.74a.5.5 0 0 1 -.665-.254 34.5 34.5 0 1 1 66.109-13.84 34.23 34.23 0 0 1 -2.892 13.841.5.5 0 0 1 -.458.3zm-5.364-3.495 5.106 2.328a33.5 33.5 0 1 0 -64.392-12.973 33.232 33.232 0 0 0 2.607 12.973l5.106-2.328a27.246 27.246 0 0 1 -2.013-10.275 27.8 27.8 0 1 1 55.6 0 27.246 27.246 0 0 1 -2.014 10.275z"/><path d="m54.96 68.93h-35.92a.5.5 0 0 1 -.265-.076 34.508 34.508 0 0 1 -13.383-15.443.5.5 0 0 1 .251-.656l5.571-2.54a27.246 27.246 0 0 1 -2.014-10.275 27.8 27.8 0 1 1 55.6 0 27.246 27.246 0 0 1 -2.014 10.275l5.571 2.54a.5.5 0 0 1 .251.656 34.508 34.508 0 0 1 -13.383 15.443.5.5 0 0 1 -.265.076zm-35.776-1h35.632a33.5 33.5 0 0 0 12.675-14.471l-5.559-2.534a.5.5 0 0 1 -.253-.65 26.314 26.314 0 0 0 2.121-10.335 26.8 26.8 0 0 0 -53.6 0 26.314 26.314 0 0 0 2.12 10.334.5.5 0 0 1 -.253.65l-5.558 2.535a33.5 33.5 0 0 0 12.675 14.471z"/></g><path d="m14.6 38.916h-.05a.651.651 0 0 1 -.6-.7 20.953 20.953 0 0 1 3.467-10.066.649.649 0 1 1 1.08.722 19.656 19.656 0 0 0 -3.25 9.441.65.65 0 0 1 -.647.603z" fill="#fff"/><path d="m14.7 42.928a.65.65 0 0 1 -.644-.567c-.052-.4-.09-.8-.117-1.206a.65.65 0 1 1 1.3-.088q.038.567.109 1.128a.649.649 0 0 1 -.562.728.616.616 0 0 1 -.086.005z" fill="#fff"/><path d="m37.756 45.011c.129 0 .24.027.364.036l-9.526-18.421c-.6-1.166-5.348-5.251-5.348-5.251s.524 6.261 1.125 7.427l9.615 18.598a3.924 3.924 0 0 1 3.77-2.389z" fill="#bbbbcd"/><path d="m33.986 47.9a.5.5 0 0 1 -.444-.271l-9.615-18.597c-.628-1.22-1.124-6.964-1.179-7.615a.5.5 0 0 1 .824-.42c.493.424 4.839 4.184 5.466 5.4l9.526 18.42a.5.5 0 0 1 -.479.728c-.062 0-.12-.012-.179-.02a1.061 1.061 0 0 0 -.15-.015 3.424 3.424 0 0 0 -3.313 2.09.5.5 0 0 1 -.442.3zm-10.128-25.326a31.742 31.742 0 0 0 .957 6l9.193 17.778a4.377 4.377 0 0 1 3.282-1.822l-9.141-17.675a32.14 32.14 0 0 0 -4.291-4.281z" fill="#323c6b"/><path d="m42.122 47.741a5.088 5.088 0 1 1 -5.088-5.088 5.037 5.037 0 0 1 2.218.509 5.1 5.1 0 0 1 2.87 4.579z" fill="#84879c"/><path d="m37.033 53.33a5.588 5.588 0 1 1 5.589-5.588 5.594 5.594 0 0 1 -5.589 5.588zm0-10.177a4.589 4.589 0 1 0 2 .459 4.588 4.588 0 0 0 -2-.459z" fill="#323c6b"/><path d="m16.34 22.62a.5.5 0 0 1 -.314-.111l-5.41-4.38a.5.5 0 0 1 .629-.777l5.41 4.38a.5.5 0 0 1 -.314.889z" fill="#323c6b"/><path d="m57.66 22.62a.5.5 0 0 1 -.314-.889l5.41-4.38a.5.5 0 0 1 .629.777l-5.41 4.38a.5.5 0 0 1 -.315.112z" fill="#323c6b"/></g></svg>