<svg id="color_line" height="512" viewBox="0 0 74 74" width="512" xmlns="http://www.w3.org/2000/svg" data-name="color line"><path d="m41.168 41.586h-3v-3.138l-25.846-9.861a2.857 2.857 0 0 1 -1.838-2.669v-10.679a2.853 2.853 0 0 1 2.85-2.851h4.366v3h-4.216v10.431l25.856 9.865a2.856 2.856 0 0 1 1.828 2.658z" fill="#eeefee"/><path d="m41.168 42.086h-3a.5.5 0 0 1 -.5-.5v-2.794l-25.524-9.738a3.354 3.354 0 0 1 -2.16-3.136v-10.679a3.354 3.354 0 0 1 3.35-3.351h4.366a.5.5 0 0 1 .5.5v3a.5.5 0 0 1 -.5.5h-3.716v9.586l25.535 9.742a3.358 3.358 0 0 1 2.149 3.125v3.244a.5.5 0 0 1 -.5.501zm-2.5-1h2v-2.744a2.353 2.353 0 0 0 -1.5-2.191l-25.862-9.864a.5.5 0 0 1 -.322-.467v-10.431a.5.5 0 0 1 .5-.5h3.716v-2h-3.866a2.353 2.353 0 0 0 -2.35 2.351v10.678a2.35 2.35 0 0 0 1.512 2.2l25.85 9.862a.5.5 0 0 1 .322.467z" fill="#323c6b"/><rect fill="#fe7058" height="4.185" rx="2.092" width="17.179" x="31.083" y="41.586"/><path d="m48.26 43.68a2.083 2.083 0 0 1 -2.09 2.09h-2.67a2.09 2.09 0 1 0 0-4.18h2.67a2.083 2.083 0 0 1 2.09 2.09z" fill="#ea6453"/><path d="m32.995 45.771v23.729a2.272 2.272 0 0 0 2.272 2.272h8.811a2.272 2.272 0 0 0 2.273-2.272v-23.729z" fill="#fe7058"/><path d="m46.35 45.77v23.73a2.275 2.275 0 0 1 -2.27 2.27h-3a2.275 2.275 0 0 0 2.27-2.27v-23.73z" fill="#ea6453"/><path d="m29.995 63.354a.5.5 0 0 1 -.5-.5v-.554a.5.5 0 0 1 1 0v.552a.5.5 0 0 1 -.5.502z" fill="#323c6b"/><path d="m29.995 60.552a.5.5 0 0 1 -.5-.5v-7.594a.5.5 0 0 1 1 0v7.594a.5.5 0 0 1 -.5.5z" fill="#323c6b"/><rect fill="#707583" height="7" rx=".938" width="3.063" x="15.177" y="10.427"/><path d="m17.3 17.927h-1.185a1.439 1.439 0 0 1 -1.437-1.437v-5.125a1.439 1.439 0 0 1 1.438-1.437h1.184a1.439 1.439 0 0 1 1.438 1.437v5.125a1.439 1.439 0 0 1 -1.438 1.437zm-1.187-7a.438.438 0 0 0 -.437.438v5.125a.438.438 0 0 0 .438.438h1.186a.438.438 0 0 0 .438-.437v-5.126a.438.438 0 0 0 -.437-.437z" fill="#323c6b"/><rect fill="#fcd462" height="16.229" rx="2.903" width="44.323" x="17.694" y="5.229"/><path d="m62.02 8.13v10.43a2.9 2.9 0 0 1 -2.52 2.87v-10.3a2.9 2.9 0 0 0 -2.9-2.9h-38.52a2.559 2.559 0 0 0 -.39.03v-.13a2.9 2.9 0 0 1 2.91-2.9h38.51a2.9 2.9 0 0 1 2.91 2.9z" fill="#f7be56"/><g fill="#323c6b"><path d="m54.333 2.729h-1.083a.5.5 0 0 1 0-1h1.083a.5.5 0 0 1 0 1z"/><path d="m64.85 6.6a.5.5 0 0 1 -.486-.384 4.509 4.509 0 0 0 -4.39-3.491h-3.224a.5.5 0 0 1 0-1h3.224a5.505 5.505 0 0 1 5.363 4.259.5.5 0 0 1 -.487.616z"/><path d="m46.17 46.271h-12.994a2.593 2.593 0 0 1 0-5.185h12.994a2.593 2.593 0 0 1 0 5.185zm-12.994-4.185a1.593 1.593 0 0 0 0 3.185h12.994a1.593 1.593 0 0 0 0-3.185z"/><path d="m44.079 72.271h-8.812a2.776 2.776 0 0 1 -2.772-2.771v-23.729a.5.5 0 0 1 .5-.5h13.356a.5.5 0 0 1 .5.5v23.729a2.776 2.776 0 0 1 -2.772 2.771zm-10.584-26v23.229a1.774 1.774 0 0 0 1.772 1.772h8.812a1.774 1.774 0 0 0 1.772-1.772v-23.229z"/><path d="m59.113 21.958h-38.513a3.407 3.407 0 0 1 -3.4-3.4v-10.426a3.407 3.407 0 0 1 3.4-3.4h38.513a3.407 3.407 0 0 1 3.4 3.4v10.423a3.407 3.407 0 0 1 -3.4 3.403zm-38.513-16.229a2.406 2.406 0 0 0 -2.4 2.4v10.426a2.406 2.406 0 0 0 2.4 2.4h38.513a2.406 2.406 0 0 0 2.4-2.4v-10.423a2.406 2.406 0 0 0 -2.4-2.4z"/></g><path d="m35.944 17.17.381-.012a.66.66 0 1 1 .03 1.32l-.381.012a.66.66 0 1 1 -.03-1.32z" fill="#fff"/><path d="m25.64 17.235 7.87-.019a.66.66 0 1 1 .03 1.32l-7.87.019a.66.66 0 0 1 -.03-1.32z" fill="#fff"/></svg>