<svg height="512" viewBox="0 0 74 74" width="512" xmlns="http://www.w3.org/2000/svg"><g id="color_line" data-name="color line"><path d="m63.183 54v13.845a2.275 2.275 0 0 1 -2.275 2.275h-51.645a3.86 3.86 0 0 1 -3.863-3.86v-45.531l.017.017a6.119 6.119 0 0 0 6.124 5.76h49.368a2.275 2.275 0 0 1 2.275 2.275v13.934" fill="#e7aa6c"/><path d="m63.184 28.777v39.07a2.277 2.277 0 0 1 -2.28 2.27h-51.64a3.862 3.862 0 0 1 -3.86-3.86v-.21a.92.92 0 0 0 .17.01h51.65a2.275 2.275 0 0 0 2.27-2.27v-37.28h1.406a2.277 2.277 0 0 1 2.284 2.27z" fill="#d09865"/><path d="m5.014 14.33a.5.5 0 0 1 -.354-.852 9.267 9.267 0 0 1 6.627-2.753h2.547a.5.5 0 1 1 0 1h-2.548a8.279 8.279 0 0 0 -5.918 2.458.5.5 0 0 1 -.354.147z" fill="#323c6b"/><path d="m16.844 11.724h-.562a.5.5 0 0 1 0-1h.563a.5.5 0 0 1 0 1z" fill="#323c6b"/><path d="m47.578 14.224h7.58a2.656 2.656 0 0 1 2.656 2.656v9.626h-46.27a6.119 6.119 0 0 1 -6.124-5.76 3.734 3.734 0 0 1 -.018-.479 5.908 5.908 0 0 1 5.883-6.044h12.8" fill="#d09865"/><path d="m57.814 27.006h-46.27a6.619 6.619 0 0 1 -6.623-6.231 2.885 2.885 0 0 1 -.018-.4v-.1a6.518 6.518 0 0 1 1.885-4.685 6.29 6.29 0 0 1 4.5-1.867h12.8a.5.5 0 0 1 0 1h-12.8a5.3 5.3 0 0 0 -3.788 1.572 5.524 5.524 0 0 0 -1.6 3.968v.113a2.121 2.121 0 0 0 .013.3 5.622 5.622 0 0 0 5.628 5.326h45.773v-9.122a2.159 2.159 0 0 0 -2.156-2.156h-7.581a.5.5 0 0 1 0-1h7.581a3.16 3.16 0 0 1 3.156 3.156v9.626a.5.5 0 0 1 -.5.5z" fill="#323c6b"/><path d="m50.667 20.865h-38.117a.5.5 0 1 1 0-1h38.117a.5.5 0 0 1 0 1z" fill="#323c6b"/><path d="m43.091 20.359 5.6-7.657a1.461 1.461 0 0 0 -.317-2.041l-12.946-9.467a1.461 1.461 0 0 0 -2.041.317l-13.787 18.848z" fill="#27ccbc"/><path d="m43.091 20.859h-23.491a.5.5 0 0 1 -.4-.795l13.783-18.848a1.962 1.962 0 0 1 2.74-.425l12.945 9.466a1.963 1.963 0 0 1 .426 2.743l-5.6 7.657a.5.5 0 0 1 -.403.202zm-22.5-1h22.246l5.45-7.452a.962.962 0 0 0 -.209-1.342l-12.945-9.465a.961.961 0 0 0 -1.343.208z" fill="#323c6b"/><path d="m43.091 20.859h-23.491a.5.5 0 0 1 -.4-.795l11.571-15.822a.5.5 0 0 1 .7-.108 4.71 4.71 0 0 0 6.582-1.021.5.5 0 0 1 .7-.109l6.894 5.041a.5.5 0 0 1 .108.7 4.715 4.715 0 0 0 1.021 6.581.5.5 0 0 1 .108.7l-3.387 4.631a.5.5 0 0 1 -.406.202zm-22.5-1h22.246l2.954-4.04a5.714 5.714 0 0 1 -1.125-7.25l-6.121-4.476a5.668 5.668 0 0 1 -3.42 1.881 5.664 5.664 0 0 1 -3.83-.756z" fill="#323c6b"/><path d="m38.1 20.368a5.778 5.778 0 1 0 -11.058 0z" fill="#21b3a9"/><g fill="#323c6b"><path d="m38.1 20.868h-11.062a.5.5 0 0 1 -.479-.354 6.276 6.276 0 1 1 12.015 0 .5.5 0 0 1 -.474.354zm-10.674-1h10.29a5.278 5.278 0 1 0 -10.29 0z"/><path d="m38.569 10.983a.5.5 0 0 1 -.4-.795l.831-1.146a.5.5 0 1 1 .807.59l-.838 1.146a.5.5 0 0 1 -.4.205z"/><path d="m66.184 66.319a.5.5 0 0 1 -.5-.5v-.812a.5.5 0 0 1 1 0v.813a.5.5 0 0 1 -.5.499z"/><path d="m60.909 70.954h-51.646a4.365 4.365 0 0 1 -4.363-4.361v-45.53a.5.5 0 0 1 .863-.343.568.568 0 0 1 .152.333 5.62 5.62 0 0 0 5.625 5.288h49.369a2.777 2.777 0 0 1 2.774 2.775v13.932a.5.5 0 0 1 -1 0v-13.934a1.777 1.777 0 0 0 -1.774-1.775h-49.365a6.6 6.6 0 0 1 -4.7-1.942 6.724 6.724 0 0 1 -.944-1.19v42.386a3.363 3.363 0 0 0 3.359 3.36h51.65a1.777 1.777 0 0 0 1.774-1.775v-13.845a.5.5 0 0 1 1 0v13.846a2.777 2.777 0 0 1 -2.774 2.775z"/></g><path d="m54.353 42.327a6.031 6.031 0 0 0 -6 6.623 6.205 6.205 0 0 0 6.261 5.438h9.775a2.318 2.318 0 0 0 2.318-2.318v-7.425a2.318 2.318 0 0 0 -2.318-2.318z" fill="#84879c"/><path d="m64.387 54.888h-9.775a6.723 6.723 0 0 1 -6.759-5.888 6.478 6.478 0 0 1 1.667-5.031 6.545 6.545 0 0 1 4.833-2.139h10.034a2.822 2.822 0 0 1 2.818 2.818v7.424a2.822 2.822 0 0 1 -2.818 2.816zm-10.034-12.061a5.544 5.544 0 0 0 -4.093 1.811 5.485 5.485 0 0 0 -1.411 4.262 5.715 5.715 0 0 0 5.764 4.985h9.774a1.82 1.82 0 0 0 1.818-1.818v-7.421a1.82 1.82 0 0 0 -1.818-1.818z" fill="#323c6b"/><circle cx="54.758" cy="48.357" fill="#323c6b" r="2.074"/><path d="m61.9 74.163a.5.5 0 1 1 0-1 3.79 3.79 0 0 0 3.786-3.786v-1.2a.5.5 0 0 1 1 0v1.2a4.792 4.792 0 0 1 -4.786 4.786z" fill="#323c6b"/><path d="m27.833 31.358h-1.044a.65.65 0 1 1 0-1.3h1.044a.65.65 0 1 1 0 1.3z" fill="#fff"/><path d="m41 31.358h-10.417a.65.65 0 1 1 0-1.3h10.417a.65.65 0 1 1 0 1.3z" fill="#fff"/></g></svg>